<svg width="55" height="78" viewBox="0 0 55 78" fill="none" xmlns="http://www.w3.org/2000/svg">
<g filter="url(#filter0_d)">
<path d="M35.8333 52.9556C34.5833 52.9556 33.75 52.5333 32.5 52.1111L27.5 50L22.5 52.1111C21.6667 52.5333 20.4167 52.9556 19.1667 52.9556C18.3333 52.9556 17.9167 52.9556 17.0833 52.5333L15 69L27.5 60.5556L40 69L37.5 52.5333C37.0833 52.9556 36.25 52.9556 35.8333 52.9556Z" fill="#FFFEFE"/>
<path d="M48.1491 25.8125C47.7278 24.9375 47.7278 23.625 48.1491 22.75L50.6771 17.5C51.5198 15.75 50.6771 13.5625 48.5704 12.6875L43.0931 10.5C42.2505 10.0625 41.4078 9.1875 40.9865 8.3125L38.8798 2.625C38.4585 0.875 37.1945 0 35.9305 0C35.5091 0 34.6665 0 34.2451 0.4375L28.7678 3.0625H27.5038C27.0825 3.0625 26.6612 3.0625 26.2398 2.625L20.7625 0.4375C20.3412 0 19.4985 0 19.0772 0C17.8132 0 16.5492 0.875 15.7065 2.1875L13.5999 8.3125C13.5999 9.1875 12.7572 10.0625 11.9146 10.5L6.01591 12.6875C4.33058 13.125 3.48792 15.3125 4.33058 17.5L6.85857 23.1875C7.2799 24.0625 7.2799 25.375 6.85857 26.25L4.33058 31.5C3.48792 33.25 4.33058 35.4375 6.43724 36.3125L11.9146 38.5C12.7572 38.9375 13.5999 39.8125 14.0212 40.6875L16.1279 46.375C16.5492 48.125 17.8132 49 19.0772 49C19.4985 49 19.9199 49 20.3412 48.5625L25.8185 45.9375C26.2398 45.9375 26.6612 45.5 27.0825 45.5C27.5038 45.5 27.9252 45.5 28.3465 45.9375L33.8238 48.5625C34.2451 49 34.6665 49 35.0878 49C36.3518 49 37.6158 48.125 38.4585 46.8125L40.5651 41.125C40.9865 40.25 41.8291 39.375 42.6718 38.9375L48.1491 36.75C49.8344 35.875 51.0984 33.6875 50.2558 31.9375L48.1491 25.8125ZM27.5038 42C18.2345 42 10.6506 34.125 10.6506 24.5C10.6506 14.875 18.2345 7 27.5038 7C36.7731 7 44.3571 14.875 44.3571 24.5C44.3571 34.125 36.7731 42 27.5038 42Z" fill="#FFFEFE"/>
<path d="M33.232 27C33.328 26.175 33.4 25.35 33.4 24.5C33.4 23.65 33.328 22.825 33.232 22H37.288C37.48 22.8 37.6 23.6375 37.6 24.5C37.6 25.3625 37.48 26.2 37.288 27H33.232ZM31.108 33.95C31.828 32.5625 32.38 31.0625 32.764 29.5H36.304C35.1414 31.5853 33.2969 33.165 31.108 33.95ZM30.808 27H25.192C25.072 26.175 25 25.35 25 24.5C25 23.65 25.072 22.8125 25.192 22H30.808C30.916 22.8125 31 23.65 31 24.5C31 25.35 30.916 26.175 30.808 27ZM28 34.45C27.004 32.95 26.2 31.2875 25.708 29.5H30.292C29.8 31.2875 28.996 32.95 28 34.45ZM23.2 19.5H19.696C20.8466 17.409 22.6898 15.8269 24.88 15.05C24.16 16.4375 23.62 17.9375 23.2 19.5ZM19.696 29.5H23.2C23.62 31.0625 24.16 32.5625 24.88 33.95C22.6943 33.1646 20.8538 31.5847 19.696 29.5ZM18.712 27C18.52 26.2 18.4 25.3625 18.4 24.5C18.4 23.6375 18.52 22.8 18.712 22H22.768C22.672 22.825 22.6 23.65 22.6 24.5C22.6 25.35 22.672 26.175 22.768 27H18.712ZM28 14.5375C28.996 16.0375 29.8 17.7125 30.292 19.5H25.708C26.2 17.7125 27.004 16.0375 28 14.5375ZM36.304 19.5H32.764C32.3884 17.9518 31.8323 16.4574 31.108 15.05C33.316 15.8375 35.152 17.425 36.304 19.5ZM28 12C21.364 12 16 17.625 16 24.5C16 27.8152 17.2643 30.9946 19.5147 33.3388C20.629 34.4996 21.9519 35.4203 23.4078 36.0485C24.8637 36.6767 26.4241 37 28 37C31.1826 37 34.2348 35.683 36.4853 33.3388C38.7357 30.9946 40 27.8152 40 24.5C40 22.8585 39.6896 21.233 39.0866 19.7165C38.4835 18.1999 37.5996 16.8219 36.4853 15.6612C35.371 14.5004 34.0481 13.5797 32.5922 12.9515C31.1363 12.3233 29.5759 12 28 12Z" fill="#FFFEFE"/>
</g>
<defs>
<filter id="filter0_d" x="0" y="0" width="55" height="78" filterUnits="userSpaceOnUse" color-interpolation-filters="sRGB">
<feFlood flood-opacity="0" result="BackgroundImageFix"/>
<feColorMatrix in="SourceAlpha" type="matrix" values="0 0 0 0 0 0 0 0 0 0 0 0 0 0 0 0 0 0 127 0" result="hardAlpha"/>
<feOffset dy="5"/>
<feGaussianBlur stdDeviation="2"/>
<feComposite in2="hardAlpha" operator="out"/>
<feColorMatrix type="matrix" values="0 0 0 0 0 0 0 0 0 0 0 0 0 0 0 0 0 0 0.5 0"/>
<feBlend mode="normal" in2="BackgroundImageFix" result="effect1_dropShadow"/>
<feBlend mode="normal" in="SourceGraphic" in2="effect1_dropShadow" result="shape"/>
</filter>
</defs>
</svg>
