<svg width="85" height="67" viewBox="0 0 85 67" fill="none" xmlns="http://www.w3.org/2000/svg">
<g filter="url(#filter0_d)">
<path d="M25.1622 32.2223V30.0169L25.7769 29.7131L42.5 37.9575L81 18.9788L42.5 0L4 18.9788L21.4918 27.6002C21.3928 27.8776 21.3398 28.1717 21.3353 28.4688V30.3359L18.2809 28.8307V35.2108C18.2809 37.0999 18.7519 38.7958 19.5604 40.3204V54.5044C19.5604 59.1652 26.9396 59.1652 26.9396 54.5044V46.8317C40.8663 53.4894 66.7178 49.6268 66.7178 35.2094V28.8293L42.5 40.7678L25.1622 32.2223ZM25.6562 54.5058C25.6562 54.9988 25.3585 55.4421 24.8888 55.7542V38.2475L24.636 38.4326V55.9047L23.8788 56.1547V38.7516L23.6286 38.7999V56.1947H22.8714V38.7999L22.6186 38.7516V56.156L21.864 55.9061V38.4326L21.6112 38.2475V55.7542C21.1428 55.4407 20.8438 54.9988 20.8438 54.5058V37.9575C20.8438 36.3749 21.5983 35.0547 22.6186 34.6556V28.4688C22.6186 28.0476 22.8137 27.7328 23.0819 27.6016L42.3319 18.1101C42.3978 18.0766 42.4695 18.0582 42.5424 18.0563C43.1558 18.0563 43.356 19.5063 42.6681 19.846L23.8788 29.1069V34.6556C24.9004 35.052 25.6562 36.3722 25.6562 37.9575V54.5058Z" fill="#FFFEFE"/>
</g>
<defs>
<filter id="filter0_d" x="0" y="0" width="85" height="67" filterUnits="userSpaceOnUse" color-interpolation-filters="sRGB">
<feFlood flood-opacity="0" result="BackgroundImageFix"/>
<feColorMatrix in="SourceAlpha" type="matrix" values="0 0 0 0 0 0 0 0 0 0 0 0 0 0 0 0 0 0 127 0" result="hardAlpha"/>
<feOffset dy="5"/>
<feGaussianBlur stdDeviation="2"/>
<feComposite in2="hardAlpha" operator="out"/>
<feColorMatrix type="matrix" values="0 0 0 0 0 0 0 0 0 0 0 0 0 0 0 0 0 0 0.5 0"/>
<feBlend mode="normal" in2="BackgroundImageFix" result="effect1_dropShadow"/>
<feBlend mode="normal" in="SourceGraphic" in2="effect1_dropShadow" result="shape"/>
</filter>
</defs>
</svg>
