<svg width="58" height="78" viewBox="0 0 58 78" fill="none" xmlns="http://www.w3.org/2000/svg">
<g opacity="1">
<g filter="url(#filter0_d)">
<path d="M47.1185 0L44.4456 2.4012L45.175 3.29705L42.5076 5.7017L41.775 4.8024L15.0609 28.8155L15.8326 29.762L13.1826 33.2292L17.5152 38.5377L21.175 36.3193L21.9467 37.2669L28.138 31.702C29.1182 32.7509 30.3104 33.5511 31.625 34.0423C31.9739 34.1722 32.3304 34.2723 32.6891 34.3563C32.9207 37.0012 32.9587 39.8211 32.5489 42.5316C31.9219 42.425 31.2883 42.3685 30.6533 42.3626C25.013 42.4074 20.2402 46.3116 18.6326 51.6925L18.6261 51.7167L17.1783 56.1188L15.7946 54.6572C10.7533 49.3304 12.0217 45.2169 12.9163 43.554L16.5196 47.3628L19.5859 44.1221L7.0587 30.9005L4 34.1343L7.90435 38.2605C6.22174 40.7974 1.73587 49.2177 9.61957 57.5471L14.8804 63.1074L12.9424 69H48.3598L42.6772 51.719L42.6696 51.6948C42.0344 49.5836 40.9101 47.6741 39.3989 46.1403C40.7804 41.6277 40.7815 36.8621 40.238 32.6301C41.6786 31.4946 42.7703 29.9344 43.3761 28.1451C43.7794 26.9472 43.9539 25.6766 43.8893 24.4068C43.8248 23.137 43.5225 21.8935 43 20.7483C42.7462 20.1891 42.4434 19.6562 42.0957 19.1567L48.6565 13.2595L47.9283 12.366L50.5956 9.95785L51.3293 10.8583L54 8.4548L47.1185 0ZM17.8696 36.3343L15.3076 33.1936L16.6576 31.426L19.7337 35.2061L17.8696 36.3343ZM7.05978 32.5255L18.0478 44.1221L17.0283 45.1996L6.03804 33.6076L7.05978 32.5255ZM30.6533 63.0821C26.7587 63.0821 23.6054 59.7713 23.6054 55.683C23.6054 51.5947 26.7587 48.2816 30.6533 48.2816C34.5446 48.2816 37.7 51.5947 37.7 55.683C37.7 59.7713 34.5446 63.0821 30.6533 63.0821ZM41.3283 27.3757C40.313 30.4106 37.6043 32.3035 34.7076 32.3035C33.925 32.3035 33.1293 32.1655 32.3489 31.8745C28.6772 30.5026 26.7478 26.2706 28.0359 22.4158C29.05 19.3833 31.7554 17.4892 34.6511 17.4881C35.4348 17.4881 36.2326 17.6272 37.0141 17.9193C40.6837 19.2866 42.6141 23.5256 41.3283 27.3757ZM46.8652 11.0561L43.5728 7.00925L46.2402 4.60345L49.5337 8.64915L46.8652 11.0561Z" fill="#FFFEFE"/>
<path d="M38.2546 26.2773C38.8967 24.3401 37.9348 22.2099 36.106 21.5195C34.2773 20.8291 32.2742 21.8398 31.632 23.777C30.9898 25.7142 31.9518 27.8444 33.7805 28.5348C35.6093 29.2252 37.6124 28.2145 38.2546 26.2773Z" fill="#FFFEFE"/>
<path d="M30.5 60C32.433 60 34 58.2091 34 56C34 53.7909 32.433 52 30.5 52C28.567 52 27 53.7909 27 56C27 58.2091 28.567 60 30.5 60Z" fill="#FFFEFE"/>
</g>
</g>
<defs>
<filter id="filter0_d" x="0" y="0" width="58" height="78" filterUnits="userSpaceOnUse" color-interpolation-filters="sRGB">
<feFlood flood-opacity="0" result="BackgroundImageFix"/>
<feColorMatrix in="SourceAlpha" type="matrix" values="0 0 0 0 0 0 0 0 0 0 0 0 0 0 0 0 0 0 127 0" result="hardAlpha"/>
<feOffset dy="5"/>
<feGaussianBlur stdDeviation="2"/>
<feComposite in2="hardAlpha" operator="out"/>
<feColorMatrix type="matrix" values="0 0 0 0 0 0 0 0 0 0 0 0 0 0 0 0 0 0 0.5 0"/>
<feBlend mode="normal" in2="BackgroundImageFix" result="effect1_dropShadow"/>
<feBlend mode="normal" in="SourceGraphic" in2="effect1_dropShadow" result="shape"/>
</filter>
</defs>
</svg>
