<svg width="56" height="78" viewBox="0 0 56 78" fill="none" xmlns="http://www.w3.org/2000/svg">
<g filter="url(#filter0_d)">
<path d="M30 28.079C29.5136 28.0313 29.0255 28.0049 28.537 28C18.8492 28 11 36.2972 11 46.5354C11 49.5896 11.7119 52.4611 12.9492 55C12.3041 52.9337 11.9747 50.7722 11.9735 48.5967C11.9735 37.7417 19.9211 28.8691 30 28.079Z" fill="#FFFEFE"/>
<path d="M35.3795 61.3331C33.7269 62.5149 31.912 63.4147 30 64C32.6707 63.649 35.2265 62.632 37.461 61.0314C45.2294 55.4557 47.3378 44.3343 42.1708 36.1838C41.9072 35.7768 41.6276 35.3818 41.3328 35C46.1073 43.9047 43.6138 55.4223 35.3795 61.3331Z" fill="#FFFEFE"/>
<path d="M41.8065 28.1968V18.1941C41.8065 17.7755 41.5895 17.4236 41.2829 17.2052L52 0H31.4516L28 5.4579L24.5484 0H4L14.7149 17.204C14.4084 17.4225 14.1913 17.7755 14.1913 18.1941V28.1968C9.30291 32.415 6.18182 38.8217 6.18182 46C6.18182 58.7018 15.9509 69 28 69C28.744 69 29.4771 68.9597 30.2015 68.8827C41.2164 67.72 49.8182 57.9198 49.8182 46C49.8182 38.8217 46.6949 32.415 41.8065 28.1968ZM37.6284 1.15H44.5316L34.9033 16.3748L31.4516 10.917L37.6284 1.15ZM38.3549 21.8328L39.4164 20.156C39.4742 20.2998 39.5058 20.4562 39.5058 20.6206V25.4725C39.5048 25.6226 39.4757 25.7709 39.4201 25.9091C39.3645 26.0473 39.2835 26.1725 39.1818 26.2775C35.9091 24.2098 32.0931 23 28 23C24.0586 23.0007 20.1919 24.1342 16.816 26.2787C16.6114 26.0655 16.4949 25.7757 16.492 25.4725V20.6206C16.492 20.4562 16.5258 20.2986 16.5815 20.156L17.6429 21.8339H38.3549V21.8328ZM11.4684 1.15H18.3716L30.7251 20.6828H23.8218L11.4684 1.15ZM28 65.55C17.7575 65.55 9.45455 56.7973 9.45455 46C9.45455 35.2038 17.7575 26.45 28 26.45C38.2404 26.45 46.5455 35.2038 46.5455 46C46.5455 56.7973 38.2404 65.55 28 65.55Z" fill="#FFFEFE"/>
<path d="M30.633 54.6898V34H26.367C26.3672 34.4529 26.2802 34.9013 26.111 35.3197C25.9419 35.7382 25.6939 36.1184 25.3812 36.4386C25.0686 36.7589 24.6973 37.013 24.2888 37.1863C23.8802 37.3596 23.4423 37.4489 23 37.4489V41.7591C23.3041 41.7591 25.6024 41.5818 26.367 41.2682V54.6898H23V59H34V54.6898H30.633Z" fill="#FFFEFE"/>
</g>
<defs>
<filter id="filter0_d" x="0" y="0" width="56" height="78" filterUnits="userSpaceOnUse" color-interpolation-filters="sRGB">
<feFlood flood-opacity="0" result="BackgroundImageFix"/>
<feColorMatrix in="SourceAlpha" type="matrix" values="0 0 0 0 0 0 0 0 0 0 0 0 0 0 0 0 0 0 127 0" result="hardAlpha"/>
<feOffset dy="5"/>
<feGaussianBlur stdDeviation="2"/>
<feComposite in2="hardAlpha" operator="out"/>
<feColorMatrix type="matrix" values="0 0 0 0 0 0 0 0 0 0 0 0 0 0 0 0 0 0 0.5 0"/>
<feBlend mode="normal" in2="BackgroundImageFix" result="effect1_dropShadow"/>
<feBlend mode="normal" in="SourceGraphic" in2="effect1_dropShadow" result="shape"/>
</filter>
</defs>
</svg>
