<svg width="81" height="74" viewBox="0 0 81 74" fill="none" xmlns="http://www.w3.org/2000/svg">
<g filter="url(#filter0_d)">
<path d="M42.4759 0L9.97018 9.21374C9.97018 9.21374 4 9.04124 4 15.5562C4 18.245 5.1607 20.2487 5.1607 20.2487L29.9247 62.8012C32.2924 66.6762 37.3208 64.25 37.3208 64.25L75.2942 45.2437L73.8732 43.7625C73.5386 41.9837 73.3439 38.69 75.6945 36.2375C75.7468 36.1825 75.7566 36.1075 75.7845 36.0387L77 35.5375L42.4759 0ZM25.3221 24.8825L19.4626 15.4125L43.4845 8.11499L50.1311 15.5487L25.3221 24.8825ZM72.6346 40.1762C72.5555 40.7512 72.5154 41.3112 72.5239 41.8362L47.5956 53.9925L72.6127 43.085C72.637 43.2837 72.6589 43.4837 72.6894 43.6637L40.7336 59.5212L72.9412 44.8462L72.9607 44.9237L37.3208 62.44C37.3038 62.4512 35.6771 63.34 34.0468 63.34C32.4359 63.34 31.4322 62.49 30.9747 60.7425C29.7982 56.2525 36.4826 53.7075 36.5835 53.67L73.5495 37.2387C73.2843 37.7387 73.1006 38.2475 72.9473 38.755L49.4814 50.1037L72.6346 40.1762Z" fill="#FFFEFE"/>
</g>
<defs>
<filter id="filter0_d" x="0" y="0" width="81" height="74" filterUnits="userSpaceOnUse" color-interpolation-filters="sRGB">
<feFlood flood-opacity="0" result="BackgroundImageFix"/>
<feColorMatrix in="SourceAlpha" type="matrix" values="0 0 0 0 0 0 0 0 0 0 0 0 0 0 0 0 0 0 127 0" result="hardAlpha"/>
<feOffset dy="5"/>
<feGaussianBlur stdDeviation="2"/>
<feComposite in2="hardAlpha" operator="out"/>
<feColorMatrix type="matrix" values="0 0 0 0 0 0 0 0 0 0 0 0 0 0 0 0 0 0 0.5 0"/>
<feBlend mode="normal" in2="BackgroundImageFix" result="effect1_dropShadow"/>
<feBlend mode="normal" in="SourceGraphic" in2="effect1_dropShadow" result="shape"/>
</filter>
</defs>
</svg>
